# xmcd
#
# Track frame offsets:
#	150
#	17400
#	29540
#	41746
#	54722
#	69990
#	87848
#
# Disc length: 1381 seconds
#
# Revision: 1
# Processed by: cddbd v1.5.2PL0 Copyright (c) Steve Scherf et al.
# Submitted via: audiograbber 1.83.01
#
DISCID=53056307
DTITLE=Wyndi Renee - She´s Back Wyndi Renee
DYEAR=2000
DGENRE=Country
TTITLE0=In America
TTITLE1=I Got You
TTITLE2=When Were You
TTITLE3=Satify You
TTITLE4=Stop The Clock
TTITLE5=You Wouldn´t Lie To An Angel
TTITLE6=Your Love Loves Got A Hold On Me
EXTD=
EXTT0=
EXTT1=
EXTT2=
EXTT3=
EXTT4=
EXTT5=
EXTT6=
PLAYORDER=
